<mxfile host="app.diagrams.net" agent="Mozilla/5.0 (Windows NT 10.0; Win64; x64) AppleWebKit/537.36 (KHTML, like Gecko) Chrome/137.0.0.0 Safari/537.36" version="27.1.5">
  <diagram name="Page-1" id="xZZzX-HNEFefpM2L-tk-">
    <mxGraphModel dx="2587" dy="937" grid="1" gridSize="10" guides="1" tooltips="1" connect="1" arrows="1" fold="1" page="1" pageScale="1" pageWidth="850" pageHeight="1100" math="0" shadow="0">
      <root>
        <mxCell id="0" />
        <mxCell id="1" parent="0" />
        <mxCell id="FqWlOh-SiktZbnWzFQOl-6" value="Elevator" style="swimlane;fontStyle=1;align=center;verticalAlign=top;childLayout=stackLayout;horizontal=1;startSize=26;horizontalStack=0;resizeParent=1;resizeParentMax=0;resizeLast=0;collapsible=1;marginBottom=0;whiteSpace=wrap;html=1;" vertex="1" parent="1">
          <mxGeometry x="400" y="288" width="160" height="124" as="geometry" />
        </mxCell>
        <mxCell id="FqWlOh-SiktZbnWzFQOl-7" value="+ id: int&lt;div&gt;+state: ElevatorState&lt;/div&gt;&lt;div&gt;+ internalButton: InternalButton&lt;/div&gt;" style="text;strokeColor=none;fillColor=none;align=left;verticalAlign=top;spacingLeft=4;spacingRight=4;overflow=hidden;rotatable=0;points=[[0,0.5],[1,0.5]];portConstraint=eastwest;whiteSpace=wrap;html=1;" vertex="1" parent="FqWlOh-SiktZbnWzFQOl-6">
          <mxGeometry y="26" width="160" height="64" as="geometry" />
        </mxCell>
        <mxCell id="FqWlOh-SiktZbnWzFQOl-8" value="" style="line;strokeWidth=1;fillColor=none;align=left;verticalAlign=middle;spacingTop=-1;spacingLeft=3;spacingRight=3;rotatable=0;labelPosition=right;points=[];portConstraint=eastwest;strokeColor=inherit;" vertex="1" parent="FqWlOh-SiktZbnWzFQOl-6">
          <mxGeometry y="90" width="160" height="8" as="geometry" />
        </mxCell>
        <mxCell id="FqWlOh-SiktZbnWzFQOl-9" value="+ move(int floor): void" style="text;strokeColor=none;fillColor=none;align=left;verticalAlign=top;spacingLeft=4;spacingRight=4;overflow=hidden;rotatable=0;points=[[0,0.5],[1,0.5]];portConstraint=eastwest;whiteSpace=wrap;html=1;" vertex="1" parent="FqWlOh-SiktZbnWzFQOl-6">
          <mxGeometry y="98" width="160" height="26" as="geometry" />
        </mxCell>
        <mxCell id="FqWlOh-SiktZbnWzFQOl-14" value="ElevatorState" style="swimlane;fontStyle=0;childLayout=stackLayout;horizontal=1;startSize=26;fillColor=none;horizontalStack=0;resizeParent=1;resizeParentMax=0;resizeLast=0;collapsible=1;marginBottom=0;whiteSpace=wrap;html=1;" vertex="1" parent="1">
          <mxGeometry x="660" y="311" width="140" height="78" as="geometry" />
        </mxCell>
        <mxCell id="FqWlOh-SiktZbnWzFQOl-15" value="+ State: Enum" style="text;strokeColor=none;fillColor=none;align=left;verticalAlign=top;spacingLeft=4;spacingRight=4;overflow=hidden;rotatable=0;points=[[0,0.5],[1,0.5]];portConstraint=eastwest;whiteSpace=wrap;html=1;" vertex="1" parent="FqWlOh-SiktZbnWzFQOl-14">
          <mxGeometry y="26" width="140" height="26" as="geometry" />
        </mxCell>
        <mxCell id="FqWlOh-SiktZbnWzFQOl-16" value="+ Direction: Enum" style="text;strokeColor=none;fillColor=none;align=left;verticalAlign=top;spacingLeft=4;spacingRight=4;overflow=hidden;rotatable=0;points=[[0,0.5],[1,0.5]];portConstraint=eastwest;whiteSpace=wrap;html=1;" vertex="1" parent="FqWlOh-SiktZbnWzFQOl-14">
          <mxGeometry y="52" width="140" height="26" as="geometry" />
        </mxCell>
        <mxCell id="FqWlOh-SiktZbnWzFQOl-18" value="" style="endArrow=diamondThin;endFill=1;endSize=24;html=1;rounded=0;exitX=0;exitY=0.5;exitDx=0;exitDy=0;entryX=1;entryY=0.5;entryDx=0;entryDy=0;" edge="1" parent="1" source="FqWlOh-SiktZbnWzFQOl-15" target="FqWlOh-SiktZbnWzFQOl-7">
          <mxGeometry width="160" relative="1" as="geometry">
            <mxPoint x="350" y="390" as="sourcePoint" />
            <mxPoint x="510" y="390" as="targetPoint" />
          </mxGeometry>
        </mxCell>
        <mxCell id="FqWlOh-SiktZbnWzFQOl-19" value="ElevatorController" style="swimlane;fontStyle=1;align=center;verticalAlign=top;childLayout=stackLayout;horizontal=1;startSize=26;horizontalStack=0;resizeParent=1;resizeParentMax=0;resizeLast=0;collapsible=1;marginBottom=0;whiteSpace=wrap;html=1;" vertex="1" parent="1">
          <mxGeometry x="35" y="285" width="240" height="150" as="geometry" />
        </mxCell>
        <mxCell id="FqWlOh-SiktZbnWzFQOl-20" value="&lt;div&gt;+ id: int&lt;/div&gt;+ elevator: Elevator&lt;div&gt;+ elevetorMovement: ElevetorStrategy&lt;/div&gt;&lt;div&gt;+ Queue&amp;lt;Request&amp;gt; requests&lt;/div&gt;" style="text;strokeColor=none;fillColor=none;align=left;verticalAlign=top;spacingLeft=4;spacingRight=4;overflow=hidden;rotatable=0;points=[[0,0.5],[1,0.5]];portConstraint=eastwest;whiteSpace=wrap;html=1;" vertex="1" parent="FqWlOh-SiktZbnWzFQOl-19">
          <mxGeometry y="26" width="240" height="64" as="geometry" />
        </mxCell>
        <mxCell id="FqWlOh-SiktZbnWzFQOl-21" value="" style="line;strokeWidth=1;fillColor=none;align=left;verticalAlign=middle;spacingTop=-1;spacingLeft=3;spacingRight=3;rotatable=0;labelPosition=right;points=[];portConstraint=eastwest;strokeColor=inherit;" vertex="1" parent="FqWlOh-SiktZbnWzFQOl-19">
          <mxGeometry y="90" width="240" height="8" as="geometry" />
        </mxCell>
        <mxCell id="FqWlOh-SiktZbnWzFQOl-22" value="+ takeRequest(Request): void&lt;div&gt;+ controlMovement(requests)&lt;/div&gt;" style="text;strokeColor=none;fillColor=none;align=left;verticalAlign=top;spacingLeft=4;spacingRight=4;overflow=hidden;rotatable=0;points=[[0,0.5],[1,0.5]];portConstraint=eastwest;whiteSpace=wrap;html=1;" vertex="1" parent="FqWlOh-SiktZbnWzFQOl-19">
          <mxGeometry y="98" width="240" height="52" as="geometry" />
        </mxCell>
        <mxCell id="FqWlOh-SiktZbnWzFQOl-23" value="" style="endArrow=diamondThin;endFill=0;endSize=24;html=1;rounded=0;entryX=1;entryY=0.5;entryDx=0;entryDy=0;" edge="1" parent="1" source="FqWlOh-SiktZbnWzFQOl-7" target="FqWlOh-SiktZbnWzFQOl-20">
          <mxGeometry width="160" relative="1" as="geometry">
            <mxPoint x="190" y="380" as="sourcePoint" />
            <mxPoint x="350" y="380" as="targetPoint" />
          </mxGeometry>
        </mxCell>
        <mxCell id="FqWlOh-SiktZbnWzFQOl-30" value="&lt;p style=&quot;margin:0px;margin-top:4px;text-align:center;&quot;&gt;&lt;i&gt;&amp;lt;&amp;lt;Interface&amp;gt;&amp;gt;&lt;/i&gt;&lt;br&gt;&lt;b&gt;ElevatorMovementStrategy&lt;/b&gt;&lt;/p&gt;&lt;hr size=&quot;1&quot; style=&quot;border-style:solid;&quot;&gt;&lt;p style=&quot;margin:0px;margin-left:4px;&quot;&gt;+ elevator: Elevator&lt;/p&gt;&lt;p style=&quot;margin:0px;margin-left:4px;&quot;&gt;+ requests : Queue&lt;/p&gt;&lt;hr size=&quot;1&quot; style=&quot;border-style:solid;&quot;&gt;&lt;p style=&quot;margin:0px;margin-left:4px;&quot;&gt;+ moveElevator()&lt;/p&gt;" style="verticalAlign=top;align=left;overflow=fill;html=1;whiteSpace=wrap;" vertex="1" parent="1">
          <mxGeometry x="60" y="580" width="190" height="110" as="geometry" />
        </mxCell>
        <mxCell id="FqWlOh-SiktZbnWzFQOl-31" value="ScanStrategy" style="swimlane;fontStyle=1;align=center;verticalAlign=top;childLayout=stackLayout;horizontal=1;startSize=26;horizontalStack=0;resizeParent=1;resizeParentMax=0;resizeLast=0;collapsible=1;marginBottom=0;whiteSpace=wrap;html=1;" vertex="1" parent="1">
          <mxGeometry x="75" y="765" width="160" height="52" as="geometry" />
        </mxCell>
        <mxCell id="FqWlOh-SiktZbnWzFQOl-34" value="+ moveElevator():&amp;nbsp;" style="text;strokeColor=none;fillColor=none;align=left;verticalAlign=top;spacingLeft=4;spacingRight=4;overflow=hidden;rotatable=0;points=[[0,0.5],[1,0.5]];portConstraint=eastwest;whiteSpace=wrap;html=1;" vertex="1" parent="FqWlOh-SiktZbnWzFQOl-31">
          <mxGeometry y="26" width="160" height="26" as="geometry" />
        </mxCell>
        <mxCell id="FqWlOh-SiktZbnWzFQOl-36" value="" style="endArrow=open;endFill=1;endSize=12;html=1;rounded=0;exitX=0.5;exitY=1;exitDx=0;exitDy=0;entryX=0.5;entryY=0;entryDx=0;entryDy=0;dashed=1;" edge="1" parent="1" source="FqWlOh-SiktZbnWzFQOl-30" target="FqWlOh-SiktZbnWzFQOl-31">
          <mxGeometry width="160" relative="1" as="geometry">
            <mxPoint x="240" y="670" as="sourcePoint" />
            <mxPoint x="400" y="670" as="targetPoint" />
          </mxGeometry>
        </mxCell>
        <mxCell id="FqWlOh-SiktZbnWzFQOl-37" value="LookStrategy" style="swimlane;fontStyle=1;align=center;verticalAlign=top;childLayout=stackLayout;horizontal=1;startSize=26;horizontalStack=0;resizeParent=1;resizeParentMax=0;resizeLast=0;collapsible=1;marginBottom=0;whiteSpace=wrap;html=1;" vertex="1" parent="1">
          <mxGeometry x="290" y="765" width="160" height="52" as="geometry" />
        </mxCell>
        <mxCell id="FqWlOh-SiktZbnWzFQOl-38" value="+ moveElevator():&amp;nbsp;" style="text;strokeColor=none;fillColor=none;align=left;verticalAlign=top;spacingLeft=4;spacingRight=4;overflow=hidden;rotatable=0;points=[[0,0.5],[1,0.5]];portConstraint=eastwest;whiteSpace=wrap;html=1;" vertex="1" parent="FqWlOh-SiktZbnWzFQOl-37">
          <mxGeometry y="26" width="160" height="26" as="geometry" />
        </mxCell>
        <mxCell id="FqWlOh-SiktZbnWzFQOl-39" value="FirstComeFirstServed" style="swimlane;fontStyle=1;align=center;verticalAlign=top;childLayout=stackLayout;horizontal=1;startSize=26;horizontalStack=0;resizeParent=1;resizeParentMax=0;resizeLast=0;collapsible=1;marginBottom=0;whiteSpace=wrap;html=1;" vertex="1" parent="1">
          <mxGeometry x="-150" y="765" width="160" height="52" as="geometry" />
        </mxCell>
        <mxCell id="FqWlOh-SiktZbnWzFQOl-40" value="+ moveElevator():&amp;nbsp;" style="text;strokeColor=none;fillColor=none;align=left;verticalAlign=top;spacingLeft=4;spacingRight=4;overflow=hidden;rotatable=0;points=[[0,0.5],[1,0.5]];portConstraint=eastwest;whiteSpace=wrap;html=1;" vertex="1" parent="FqWlOh-SiktZbnWzFQOl-39">
          <mxGeometry y="26" width="160" height="26" as="geometry" />
        </mxCell>
        <mxCell id="FqWlOh-SiktZbnWzFQOl-42" value="" style="endArrow=open;endFill=1;endSize=12;html=1;rounded=0;exitX=0.25;exitY=1;exitDx=0;exitDy=0;entryX=0.75;entryY=0;entryDx=0;entryDy=0;dashed=1;" edge="1" parent="1" source="FqWlOh-SiktZbnWzFQOl-30" target="FqWlOh-SiktZbnWzFQOl-39">
          <mxGeometry width="160" relative="1" as="geometry">
            <mxPoint x="240" y="670" as="sourcePoint" />
            <mxPoint x="400" y="670" as="targetPoint" />
          </mxGeometry>
        </mxCell>
        <mxCell id="FqWlOh-SiktZbnWzFQOl-43" value="" style="endArrow=open;endFill=1;endSize=12;html=1;rounded=0;exitX=0.75;exitY=1;exitDx=0;exitDy=0;entryX=0.5;entryY=0;entryDx=0;entryDy=0;dashed=1;" edge="1" parent="1" source="FqWlOh-SiktZbnWzFQOl-30" target="FqWlOh-SiktZbnWzFQOl-37">
          <mxGeometry width="160" relative="1" as="geometry">
            <mxPoint x="240" y="670" as="sourcePoint" />
            <mxPoint x="400" y="670" as="targetPoint" />
          </mxGeometry>
        </mxCell>
        <mxCell id="FqWlOh-SiktZbnWzFQOl-47" value="" style="endArrow=diamondThin;endFill=0;endSize=24;html=1;rounded=0;exitX=0.521;exitY=1.038;exitDx=0;exitDy=0;exitPerimeter=0;entryX=0.5;entryY=0;entryDx=0;entryDy=0;" edge="1" parent="1" source="FqWlOh-SiktZbnWzFQOl-22" target="FqWlOh-SiktZbnWzFQOl-30">
          <mxGeometry width="160" relative="1" as="geometry">
            <mxPoint x="120" y="480" as="sourcePoint" />
            <mxPoint x="280" y="480" as="targetPoint" />
          </mxGeometry>
        </mxCell>
        <mxCell id="FqWlOh-SiktZbnWzFQOl-48" value="ElevatorManager" style="swimlane;fontStyle=1;align=center;verticalAlign=top;childLayout=stackLayout;horizontal=1;startSize=26;horizontalStack=0;resizeParent=1;resizeParentMax=0;resizeLast=0;collapsible=1;marginBottom=0;whiteSpace=wrap;html=1;" vertex="1" parent="1">
          <mxGeometry x="-425" y="270" width="340" height="160" as="geometry" />
        </mxCell>
        <mxCell id="FqWlOh-SiktZbnWzFQOl-49" value="+ elevatorMap: List&amp;lt;int,ElevatorController&amp;gt;&lt;div&gt;+ elevatorSelectionStrategy: ElevatorSelectionStrategy&lt;/div&gt;&lt;div&gt;&lt;br&gt;&lt;/div&gt;" style="text;strokeColor=none;fillColor=none;align=left;verticalAlign=top;spacingLeft=4;spacingRight=4;overflow=hidden;rotatable=0;points=[[0,0.5],[1,0.5]];portConstraint=eastwest;whiteSpace=wrap;html=1;" vertex="1" parent="FqWlOh-SiktZbnWzFQOl-48">
          <mxGeometry y="26" width="340" height="54" as="geometry" />
        </mxCell>
        <mxCell id="FqWlOh-SiktZbnWzFQOl-50" value="" style="line;strokeWidth=1;fillColor=none;align=left;verticalAlign=middle;spacingTop=-1;spacingLeft=3;spacingRight=3;rotatable=0;labelPosition=right;points=[];portConstraint=eastwest;strokeColor=inherit;" vertex="1" parent="FqWlOh-SiktZbnWzFQOl-48">
          <mxGeometry y="80" width="340" height="8" as="geometry" />
        </mxCell>
        <mxCell id="FqWlOh-SiktZbnWzFQOl-51" value="- getElevatorController(ExternalRequest,elevatorMap): ElevatorController&lt;div&gt;+ processExternalRequest(ExternalRequest)&lt;/div&gt;&lt;div&gt;+ processInternalRequest(InternalRequest)&lt;/div&gt;" style="text;strokeColor=none;fillColor=none;align=left;verticalAlign=top;spacingLeft=4;spacingRight=4;overflow=hidden;rotatable=0;points=[[0,0.5],[1,0.5]];portConstraint=eastwest;whiteSpace=wrap;html=1;" vertex="1" parent="FqWlOh-SiktZbnWzFQOl-48">
          <mxGeometry y="88" width="340" height="72" as="geometry" />
        </mxCell>
        <mxCell id="FqWlOh-SiktZbnWzFQOl-52" value="" style="endArrow=diamondThin;endFill=0;endSize=24;html=1;rounded=0;exitX=0;exitY=0.5;exitDx=0;exitDy=0;entryX=1.001;entryY=0.878;entryDx=0;entryDy=0;entryPerimeter=0;" edge="1" parent="1" source="FqWlOh-SiktZbnWzFQOl-20" target="FqWlOh-SiktZbnWzFQOl-49">
          <mxGeometry width="160" relative="1" as="geometry">
            <mxPoint x="-150" y="510" as="sourcePoint" />
            <mxPoint x="10" y="510" as="targetPoint" />
          </mxGeometry>
        </mxCell>
        <mxCell id="FqWlOh-SiktZbnWzFQOl-53" value="ExternalRequest" style="swimlane;fontStyle=1;align=center;verticalAlign=top;childLayout=stackLayout;horizontal=1;startSize=26;horizontalStack=0;resizeParent=1;resizeParentMax=0;resizeLast=0;collapsible=1;marginBottom=0;whiteSpace=wrap;html=1;" vertex="1" parent="1">
          <mxGeometry x="-490" y="520" width="160" height="80" as="geometry" />
        </mxCell>
        <mxCell id="FqWlOh-SiktZbnWzFQOl-54" value="+ direction: Direction&lt;div&gt;+ floor: int&lt;/div&gt;" style="text;strokeColor=none;fillColor=none;align=left;verticalAlign=top;spacingLeft=4;spacingRight=4;overflow=hidden;rotatable=0;points=[[0,0.5],[1,0.5]];portConstraint=eastwest;whiteSpace=wrap;html=1;" vertex="1" parent="FqWlOh-SiktZbnWzFQOl-53">
          <mxGeometry y="26" width="160" height="54" as="geometry" />
        </mxCell>
        <mxCell id="FqWlOh-SiktZbnWzFQOl-57" value="InternalRequest" style="swimlane;fontStyle=1;align=center;verticalAlign=top;childLayout=stackLayout;horizontal=1;startSize=26;horizontalStack=0;resizeParent=1;resizeParentMax=0;resizeLast=0;collapsible=1;marginBottom=0;whiteSpace=wrap;html=1;" vertex="1" parent="1">
          <mxGeometry x="-695" y="520" width="160" height="80" as="geometry" />
        </mxCell>
        <mxCell id="FqWlOh-SiktZbnWzFQOl-58" value="+ id: int&lt;div&gt;+ floor: int&lt;/div&gt;" style="text;strokeColor=none;fillColor=none;align=left;verticalAlign=top;spacingLeft=4;spacingRight=4;overflow=hidden;rotatable=0;points=[[0,0.5],[1,0.5]];portConstraint=eastwest;whiteSpace=wrap;html=1;" vertex="1" parent="FqWlOh-SiktZbnWzFQOl-57">
          <mxGeometry y="26" width="160" height="54" as="geometry" />
        </mxCell>
        <mxCell id="FqWlOh-SiktZbnWzFQOl-59" value="InternalRequestProcessor" style="swimlane;fontStyle=1;align=center;verticalAlign=top;childLayout=stackLayout;horizontal=1;startSize=26;horizontalStack=0;resizeParent=1;resizeParentMax=0;resizeLast=0;collapsible=1;marginBottom=0;whiteSpace=wrap;html=1;" vertex="1" parent="1">
          <mxGeometry x="-740" y="170" width="270" height="110" as="geometry" />
        </mxCell>
        <mxCell id="FqWlOh-SiktZbnWzFQOl-60" value="+ elevatorManager: ElevatorManager" style="text;strokeColor=none;fillColor=none;align=left;verticalAlign=top;spacingLeft=4;spacingRight=4;overflow=hidden;rotatable=0;points=[[0,0.5],[1,0.5]];portConstraint=eastwest;whiteSpace=wrap;html=1;" vertex="1" parent="FqWlOh-SiktZbnWzFQOl-59">
          <mxGeometry y="26" width="270" height="34" as="geometry" />
        </mxCell>
        <mxCell id="FqWlOh-SiktZbnWzFQOl-61" value="" style="line;strokeWidth=1;fillColor=none;align=left;verticalAlign=middle;spacingTop=-1;spacingLeft=3;spacingRight=3;rotatable=0;labelPosition=right;points=[];portConstraint=eastwest;strokeColor=inherit;" vertex="1" parent="FqWlOh-SiktZbnWzFQOl-59">
          <mxGeometry y="60" width="270" height="8" as="geometry" />
        </mxCell>
        <mxCell id="FqWlOh-SiktZbnWzFQOl-62" value="+ forwardInternalRequest(internalRequest):&amp;nbsp;" style="text;strokeColor=none;fillColor=none;align=left;verticalAlign=top;spacingLeft=4;spacingRight=4;overflow=hidden;rotatable=0;points=[[0,0.5],[1,0.5]];portConstraint=eastwest;whiteSpace=wrap;html=1;" vertex="1" parent="FqWlOh-SiktZbnWzFQOl-59">
          <mxGeometry y="68" width="270" height="42" as="geometry" />
        </mxCell>
        <mxCell id="FqWlOh-SiktZbnWzFQOl-64" value="ExternalRequestProcessor" style="swimlane;fontStyle=1;align=center;verticalAlign=top;childLayout=stackLayout;horizontal=1;startSize=26;horizontalStack=0;resizeParent=1;resizeParentMax=0;resizeLast=0;collapsible=1;marginBottom=0;whiteSpace=wrap;html=1;" vertex="1" parent="1">
          <mxGeometry x="-750" y="350" width="270" height="110" as="geometry" />
        </mxCell>
        <mxCell id="FqWlOh-SiktZbnWzFQOl-65" value="+ elevatorManager: ElevatorManager" style="text;strokeColor=none;fillColor=none;align=left;verticalAlign=top;spacingLeft=4;spacingRight=4;overflow=hidden;rotatable=0;points=[[0,0.5],[1,0.5]];portConstraint=eastwest;whiteSpace=wrap;html=1;" vertex="1" parent="FqWlOh-SiktZbnWzFQOl-64">
          <mxGeometry y="26" width="270" height="34" as="geometry" />
        </mxCell>
        <mxCell id="FqWlOh-SiktZbnWzFQOl-66" value="" style="line;strokeWidth=1;fillColor=none;align=left;verticalAlign=middle;spacingTop=-1;spacingLeft=3;spacingRight=3;rotatable=0;labelPosition=right;points=[];portConstraint=eastwest;strokeColor=inherit;" vertex="1" parent="FqWlOh-SiktZbnWzFQOl-64">
          <mxGeometry y="60" width="270" height="8" as="geometry" />
        </mxCell>
        <mxCell id="FqWlOh-SiktZbnWzFQOl-67" value="+ forwardInternalRequest(internalRequest):&amp;nbsp;" style="text;strokeColor=none;fillColor=none;align=left;verticalAlign=top;spacingLeft=4;spacingRight=4;overflow=hidden;rotatable=0;points=[[0,0.5],[1,0.5]];portConstraint=eastwest;whiteSpace=wrap;html=1;" vertex="1" parent="FqWlOh-SiktZbnWzFQOl-64">
          <mxGeometry y="68" width="270" height="42" as="geometry" />
        </mxCell>
        <mxCell id="FqWlOh-SiktZbnWzFQOl-68" value="" style="endArrow=diamondThin;endFill=0;endSize=24;html=1;rounded=0;entryX=0.99;entryY=1.053;entryDx=0;entryDy=0;entryPerimeter=0;exitX=0;exitY=0.5;exitDx=0;exitDy=0;" edge="1" parent="1" source="FqWlOh-SiktZbnWzFQOl-51" target="FqWlOh-SiktZbnWzFQOl-65">
          <mxGeometry width="160" relative="1" as="geometry">
            <mxPoint x="-430" y="360" as="sourcePoint" />
            <mxPoint x="-280" y="490" as="targetPoint" />
          </mxGeometry>
        </mxCell>
        <mxCell id="FqWlOh-SiktZbnWzFQOl-69" value="" style="endArrow=diamondThin;endFill=0;endSize=24;html=1;rounded=0;exitX=0;exitY=0.5;exitDx=0;exitDy=0;entryX=1;entryY=0.5;entryDx=0;entryDy=0;" edge="1" parent="1" source="FqWlOh-SiktZbnWzFQOl-49" target="FqWlOh-SiktZbnWzFQOl-60">
          <mxGeometry width="160" relative="1" as="geometry">
            <mxPoint x="-430" y="430" as="sourcePoint" />
            <mxPoint x="-270" y="430" as="targetPoint" />
          </mxGeometry>
        </mxCell>
        <mxCell id="FqWlOh-SiktZbnWzFQOl-72" value="InternalButtons" style="swimlane;fontStyle=1;align=center;verticalAlign=top;childLayout=stackLayout;horizontal=1;startSize=26;horizontalStack=0;resizeParent=1;resizeParentMax=0;resizeLast=0;collapsible=1;marginBottom=0;whiteSpace=wrap;html=1;" vertex="1" parent="1">
          <mxGeometry x="35" y="190" width="210" height="52" as="geometry" />
        </mxCell>
        <mxCell id="FqWlOh-SiktZbnWzFQOl-73" value="+ InternalButtonDispatcher" style="text;strokeColor=none;fillColor=none;align=left;verticalAlign=top;spacingLeft=4;spacingRight=4;overflow=hidden;rotatable=0;points=[[0,0.5],[1,0.5]];portConstraint=eastwest;whiteSpace=wrap;html=1;" vertex="1" parent="FqWlOh-SiktZbnWzFQOl-72">
          <mxGeometry y="26" width="210" height="26" as="geometry" />
        </mxCell>
        <mxCell id="FqWlOh-SiktZbnWzFQOl-76" value="" style="endArrow=diamondThin;endFill=1;endSize=24;html=1;rounded=0;exitX=1.004;exitY=-0.08;exitDx=0;exitDy=0;exitPerimeter=0;entryX=0.595;entryY=-0.002;entryDx=0;entryDy=0;entryPerimeter=0;" edge="1" parent="1" source="FqWlOh-SiktZbnWzFQOl-73" target="FqWlOh-SiktZbnWzFQOl-6">
          <mxGeometry width="160" relative="1" as="geometry">
            <mxPoint x="150" y="180" as="sourcePoint" />
            <mxPoint x="310" y="180" as="targetPoint" />
          </mxGeometry>
        </mxCell>
        <mxCell id="FqWlOh-SiktZbnWzFQOl-77" value="" style="endArrow=diamondThin;endFill=1;endSize=24;html=1;rounded=0;exitX=1;exitY=0.5;exitDx=0;exitDy=0;entryX=0;entryY=-0.142;entryDx=0;entryDy=0;entryPerimeter=0;" edge="1" parent="1" source="FqWlOh-SiktZbnWzFQOl-60" target="FqWlOh-SiktZbnWzFQOl-73">
          <mxGeometry width="160" relative="1" as="geometry">
            <mxPoint x="-340" y="240" as="sourcePoint" />
            <mxPoint x="-180" y="240" as="targetPoint" />
          </mxGeometry>
        </mxCell>
        <mxCell id="FqWlOh-SiktZbnWzFQOl-78" value="&lt;p style=&quot;margin:0px;margin-top:4px;text-align:center;&quot;&gt;&lt;i&gt;&amp;lt;&amp;lt;Interface&amp;gt;&amp;gt;&lt;/i&gt;&lt;br&gt;&lt;b&gt;ElevatorSelectionStrategy&lt;/b&gt;&lt;/p&gt;&lt;hr size=&quot;1&quot; style=&quot;border-style:solid;&quot;&gt;&lt;p style=&quot;margin:0px;margin-left:4px;&quot;&gt;+ getElevator(ExternalRequest)&lt;/p&gt;" style="verticalAlign=top;align=left;overflow=fill;html=1;whiteSpace=wrap;" vertex="1" parent="1">
          <mxGeometry x="-250" y="490" width="190" height="70" as="geometry" />
        </mxCell>
        <mxCell id="FqWlOh-SiktZbnWzFQOl-79" value="OddEvenStrategy" style="swimlane;fontStyle=1;align=center;verticalAlign=top;childLayout=stackLayout;horizontal=1;startSize=26;horizontalStack=0;resizeParent=1;resizeParentMax=0;resizeLast=0;collapsible=1;marginBottom=0;whiteSpace=wrap;html=1;" vertex="1" parent="1">
          <mxGeometry x="-345" y="620" width="180" height="52" as="geometry" />
        </mxCell>
        <mxCell id="FqWlOh-SiktZbnWzFQOl-80" value="+ getElevator(ExternalRequest)" style="text;strokeColor=none;fillColor=none;align=left;verticalAlign=top;spacingLeft=4;spacingRight=4;overflow=hidden;rotatable=0;points=[[0,0.5],[1,0.5]];portConstraint=eastwest;whiteSpace=wrap;html=1;" vertex="1" parent="FqWlOh-SiktZbnWzFQOl-79">
          <mxGeometry y="26" width="180" height="26" as="geometry" />
        </mxCell>
        <mxCell id="FqWlOh-SiktZbnWzFQOl-81" value="ZoneBasedStrategy" style="swimlane;fontStyle=1;align=center;verticalAlign=top;childLayout=stackLayout;horizontal=1;startSize=26;horizontalStack=0;resizeParent=1;resizeParentMax=0;resizeLast=0;collapsible=1;marginBottom=0;whiteSpace=wrap;html=1;" vertex="1" parent="1">
          <mxGeometry x="-140" y="620" width="190" height="52" as="geometry" />
        </mxCell>
        <mxCell id="FqWlOh-SiktZbnWzFQOl-82" value="+ getElevator(ExternalRequest)" style="text;strokeColor=none;fillColor=none;align=left;verticalAlign=top;spacingLeft=4;spacingRight=4;overflow=hidden;rotatable=0;points=[[0,0.5],[1,0.5]];portConstraint=eastwest;whiteSpace=wrap;html=1;" vertex="1" parent="FqWlOh-SiktZbnWzFQOl-81">
          <mxGeometry y="26" width="190" height="26" as="geometry" />
        </mxCell>
        <mxCell id="FqWlOh-SiktZbnWzFQOl-83" value="" style="endArrow=open;endFill=1;endSize=12;html=1;rounded=0;entryX=0.5;entryY=0;entryDx=0;entryDy=0;dashed=1;" edge="1" parent="1" source="FqWlOh-SiktZbnWzFQOl-78" target="FqWlOh-SiktZbnWzFQOl-79">
          <mxGeometry width="160" relative="1" as="geometry">
            <mxPoint x="-350" y="620" as="sourcePoint" />
            <mxPoint x="-190" y="620" as="targetPoint" />
          </mxGeometry>
        </mxCell>
        <mxCell id="FqWlOh-SiktZbnWzFQOl-84" value="" style="endArrow=open;endFill=1;endSize=12;html=1;rounded=0;exitX=0.75;exitY=1;exitDx=0;exitDy=0;entryX=0.5;entryY=0;entryDx=0;entryDy=0;dashed=1;" edge="1" parent="1" source="FqWlOh-SiktZbnWzFQOl-78" target="FqWlOh-SiktZbnWzFQOl-81">
          <mxGeometry width="160" relative="1" as="geometry">
            <mxPoint x="-350" y="620" as="sourcePoint" />
            <mxPoint x="-190" y="620" as="targetPoint" />
          </mxGeometry>
        </mxCell>
        <mxCell id="FqWlOh-SiktZbnWzFQOl-85" value="" style="endArrow=diamondThin;endFill=0;endSize=24;html=1;rounded=0;exitX=0.5;exitY=0;exitDx=0;exitDy=0;entryX=0.679;entryY=1.013;entryDx=0;entryDy=0;entryPerimeter=0;" edge="1" parent="1" source="FqWlOh-SiktZbnWzFQOl-78" target="FqWlOh-SiktZbnWzFQOl-51">
          <mxGeometry width="160" relative="1" as="geometry">
            <mxPoint x="-350" y="620" as="sourcePoint" />
            <mxPoint x="-190" y="620" as="targetPoint" />
          </mxGeometry>
        </mxCell>
        <mxCell id="FqWlOh-SiktZbnWzFQOl-71" value="" style="endArrow=diamondThin;endFill=0;endSize=24;html=1;rounded=0;entryX=0.193;entryY=1.013;entryDx=0;entryDy=0;entryPerimeter=0;exitX=0.5;exitY=0;exitDx=0;exitDy=0;" edge="1" parent="1" source="FqWlOh-SiktZbnWzFQOl-53" target="FqWlOh-SiktZbnWzFQOl-51">
          <mxGeometry width="160" relative="1" as="geometry">
            <mxPoint x="-390" y="510" as="sourcePoint" />
            <mxPoint x="-270" y="530" as="targetPoint" />
          </mxGeometry>
        </mxCell>
        <mxCell id="FqWlOh-SiktZbnWzFQOl-86" value="" style="endArrow=diamondThin;endFill=0;endSize=24;html=1;rounded=0;exitX=0.75;exitY=0;exitDx=0;exitDy=0;entryX=-0.002;entryY=1.055;entryDx=0;entryDy=0;entryPerimeter=0;" edge="1" parent="1" source="FqWlOh-SiktZbnWzFQOl-57" target="FqWlOh-SiktZbnWzFQOl-51">
          <mxGeometry width="160" relative="1" as="geometry">
            <mxPoint x="-350" y="530" as="sourcePoint" />
            <mxPoint x="-380" y="420" as="targetPoint" />
          </mxGeometry>
        </mxCell>
      </root>
    </mxGraphModel>
  </diagram>
</mxfile>
